<svg width="256" height="256" viewBox="0 0 256 256" fill="none" xmlns="http://www.w3.org/2000/svg">
<rect width="256" height="256" rx="24" fill="black"/>
<mask id="path-2-outside-1_683_89" maskUnits="userSpaceOnUse" x="46" y="70" width="188" height="114" fill="black">
<rect fill="white" x="46" y="70" width="188" height="114"/>
<path fill-rule="evenodd" clip-rule="evenodd" d="M64.3033 74.4455H48V179.805H65.3222V114.185C65.3222 112.147 65.7977 109.633 66.7487 106.644C67.8356 103.52 69.466 100.531 71.6397 97.6776C73.9494 94.8246 76.8704 92.3791 80.4027 90.3412C84.071 88.3033 88.4185 87.2843 93.4453 87.2843C97.3853 87.2843 100.578 87.8957 103.023 89.1184C105.605 90.2053 107.643 91.8356 109.137 94.0094C110.632 96.0473 111.651 98.4928 112.194 101.346C112.873 104.199 113.213 107.324 113.213 110.72V179.805H130.535V114.185C130.535 106.033 132.981 99.5118 137.872 94.6208C142.763 89.7298 149.488 87.2843 158.047 87.2843C162.259 87.2843 165.655 87.8957 168.237 89.1184C170.954 90.3412 173.06 92.0394 174.554 94.2132C176.049 96.2511 177.067 98.6966 177.611 101.55C178.154 104.403 178.426 107.46 178.426 110.72V179.068L195.748 159.736V102.569C195.748 97.1342 194.865 92.5149 193.099 88.7108C191.469 84.7709 189.091 81.5782 185.966 79.1327C182.977 76.6872 179.309 74.921 174.962 73.8341C170.75 72.6114 165.995 72 160.696 72C153.767 72 147.382 73.5624 141.54 76.6872C135.834 79.812 131.215 84.2274 127.682 89.9336C125.508 83.4123 121.772 78.793 116.474 76.0758C111.175 73.3586 105.265 72 98.7439 72C83.9351 72 72.5907 77.9779 64.7108 89.9336H64.3033V74.4455ZM209.308 167.628L218.666 157.185H231.929V179.805H209.308V167.628Z"/>
</mask>
<path fill-rule="evenodd" clip-rule="evenodd" d="M64.3033 74.4455H48V179.805H65.3222V114.185C65.3222 112.147 65.7977 109.633 66.7487 106.644C67.8356 103.52 69.466 100.531 71.6397 97.6776C73.9494 94.8246 76.8704 92.3791 80.4027 90.3412C84.071 88.3033 88.4185 87.2843 93.4453 87.2843C97.3853 87.2843 100.578 87.8957 103.023 89.1184C105.605 90.2053 107.643 91.8356 109.137 94.0094C110.632 96.0473 111.651 98.4928 112.194 101.346C112.873 104.199 113.213 107.324 113.213 110.72V179.805H130.535V114.185C130.535 106.033 132.981 99.5118 137.872 94.6208C142.763 89.7298 149.488 87.2843 158.047 87.2843C162.259 87.2843 165.655 87.8957 168.237 89.1184C170.954 90.3412 173.06 92.0394 174.554 94.2132C176.049 96.2511 177.067 98.6966 177.611 101.55C178.154 104.403 178.426 107.46 178.426 110.72V179.068L195.748 159.736V102.569C195.748 97.1342 194.865 92.5149 193.099 88.7108C191.469 84.7709 189.091 81.5782 185.966 79.1327C182.977 76.6872 179.309 74.921 174.962 73.8341C170.75 72.6114 165.995 72 160.696 72C153.767 72 147.382 73.5624 141.54 76.6872C135.834 79.812 131.215 84.2274 127.682 89.9336C125.508 83.4123 121.772 78.793 116.474 76.0758C111.175 73.3586 105.265 72 98.7439 72C83.9351 72 72.5907 77.9779 64.7108 89.9336H64.3033V74.4455ZM209.308 167.628L218.666 157.185H231.929V179.805H209.308V167.628Z" fill="white"/>
<path d="M48 74.4455V72.9359H46.4904V74.4455H48ZM64.3033 74.4455H65.8128V72.9359H64.3033V74.4455ZM48 179.805H46.4904V181.315H48V179.805ZM65.3222 179.805V181.315H66.8318V179.805H65.3222ZM66.7487 106.644L65.323 106.149L65.3164 106.168L65.3102 106.187L66.7487 106.644ZM71.6397 97.6776L70.4664 96.7278L70.4524 96.7451L70.439 96.7628L71.6397 97.6776ZM80.4027 90.3412L79.6696 89.0216L79.6589 89.0275L79.6484 89.0336L80.4027 90.3412ZM103.023 89.1184L102.348 90.4686L102.392 90.4906L102.438 90.5097L103.023 89.1184ZM109.137 94.0094L107.893 94.8646L107.906 94.8836L107.92 94.9021L109.137 94.0094ZM112.194 101.346L110.711 101.628L110.718 101.662L110.726 101.696L112.194 101.346ZM113.213 179.805H111.703V181.315H113.213V179.805ZM130.535 179.805V181.315H132.045V179.805H130.535ZM137.872 94.6208L138.939 95.6882L137.872 94.6208ZM168.237 89.1184L167.59 90.4827L167.604 90.489L167.617 90.495L168.237 89.1184ZM174.554 94.2132L173.31 95.0684L173.323 95.0874L173.337 95.1059L174.554 94.2132ZM177.611 101.55L176.128 101.832L177.611 101.55ZM178.426 179.068H176.917V183.015L179.55 180.075L178.426 179.068ZM195.748 159.736L196.873 160.744L197.258 160.314V159.736H195.748ZM193.099 88.7108L191.704 89.288L191.716 89.3176L191.73 89.3465L193.099 88.7108ZM185.966 79.1327L185.01 80.301L185.023 80.3114L185.036 80.3215L185.966 79.1327ZM174.962 73.8341L174.541 75.2838L174.568 75.2917L174.596 75.2986L174.962 73.8341ZM141.54 76.6872L140.828 75.3561L140.821 75.3596L140.815 75.3632L141.54 76.6872ZM127.682 89.9336L126.25 90.411L127.269 93.4685L128.966 90.7282L127.682 89.9336ZM116.474 76.0758L115.785 77.4191L115.785 77.4191L116.474 76.0758ZM64.7108 89.9336V91.4431H65.5238L65.9713 90.7643L64.7108 89.9336ZM64.3033 89.9336H62.7937V91.4431H64.3033V89.9336ZM218.666 157.185V155.675H217.992L217.542 156.177L218.666 157.185ZM209.308 167.628L208.184 166.62L207.799 167.05V167.628H209.308ZM231.929 157.185H233.439V155.675H231.929V157.185ZM231.929 179.805V181.315H233.439V179.805H231.929ZM209.308 179.805H207.799V181.315H209.308V179.805ZM48 75.9551H64.3033V72.9359H48V75.9551ZM49.5096 179.805V74.4455H46.4904V179.805H49.5096ZM65.3222 178.296H48V181.315H65.3222V178.296ZM63.8126 114.185V179.805H66.8318V114.185H63.8126ZM65.3102 106.187C64.3346 109.253 63.8126 111.931 63.8126 114.185H66.8318C66.8318 112.362 67.2608 110.014 68.1872 107.102L65.3102 106.187ZM70.439 96.7628C68.1766 99.7321 66.4665 102.861 65.323 106.149L68.1745 107.14C69.2048 104.178 70.7553 101.329 72.8405 98.5925L70.439 96.7628ZM79.6484 89.0336C75.9733 91.1538 72.9048 93.7157 70.4664 96.7278L72.813 98.6274C74.9939 95.9334 77.7674 93.6043 81.1571 91.6487L79.6484 89.0336ZM93.4453 85.7747C88.2126 85.7747 83.6026 86.8366 79.6696 89.0216L81.1358 91.6608C84.5393 89.7699 88.6243 88.7939 93.4453 88.7939V85.7747ZM103.699 87.7682C100.972 86.4048 97.5236 85.7747 93.4453 85.7747V88.7939C97.247 88.7939 100.184 89.3865 102.348 90.4686L103.699 87.7682ZM110.381 93.1542C108.713 90.7275 106.44 88.9189 103.609 87.7272L102.438 90.5097C104.77 91.4918 106.573 92.9437 107.893 94.8646L110.381 93.1542ZM113.677 101.063C113.098 98.0226 112 95.3609 110.355 93.1167L107.92 94.9021C109.263 96.7337 110.203 98.963 110.711 101.628L113.677 101.063ZM114.723 110.72C114.723 107.224 114.373 103.98 113.663 100.996L110.726 101.696C111.374 104.418 111.703 107.423 111.703 110.72H114.723ZM114.723 179.805V110.72H111.703V179.805H114.723ZM130.535 178.296H113.213V181.315H130.535V178.296ZM129.026 114.185V179.805H132.045V114.185H129.026ZM136.804 93.5534C131.58 98.7775 129.026 105.71 129.026 114.185H132.045C132.045 106.356 134.381 100.246 138.939 95.6882L136.804 93.5534ZM158.047 85.7747C149.188 85.7747 142.042 88.3152 136.804 93.5534L138.939 95.6882C143.483 91.1444 149.787 88.7939 158.047 88.7939V85.7747ZM168.883 87.7542C166.027 86.4014 162.385 85.7747 158.047 85.7747V88.7939C162.133 88.7939 165.284 89.39 167.59 90.4827L168.883 87.7542ZM175.798 93.358C174.127 90.9281 171.792 89.0629 168.856 87.7418L167.617 90.495C170.116 91.6194 171.992 93.1507 173.31 95.0684L175.798 93.358ZM179.094 101.267C178.515 98.2264 177.417 95.5647 175.771 93.3205L173.337 95.1059C174.68 96.9375 175.62 99.1668 176.128 101.832L179.094 101.267ZM179.936 110.72C179.936 107.376 179.657 104.224 179.094 101.267L176.128 101.832C176.652 104.582 176.917 107.543 176.917 110.72H179.936ZM179.936 179.068V110.72H176.917V179.068H179.936ZM179.55 180.075L196.873 160.744L194.624 158.729L177.302 178.06L179.55 180.075ZM194.239 102.569V159.736H197.258V102.569H194.239ZM191.73 89.3465C193.38 92.9017 194.239 97.2914 194.239 102.569H197.258C197.258 96.977 196.35 92.1281 194.468 88.0751L191.73 89.3465ZM185.036 80.3215C187.941 82.5946 190.166 85.5701 191.704 89.288L194.494 88.1337C192.772 83.9717 190.242 80.5617 186.897 77.9439L185.036 80.3215ZM174.596 75.2986C178.762 76.3401 182.219 78.0175 185.01 80.301L186.922 77.9643C183.735 75.3569 179.857 73.5019 175.328 72.3696L174.596 75.2986ZM160.696 73.5096C165.881 73.5096 170.491 74.108 174.541 75.2838L175.383 72.3844C171.009 71.1147 166.109 70.4904 160.696 70.4904V73.5096ZM142.252 78.0183C147.865 75.0161 154.004 73.5096 160.696 73.5096V70.4904C153.531 70.4904 146.899 72.1087 140.828 75.3561L142.252 78.0183ZM128.966 90.7282C132.365 85.2365 136.795 81.0067 142.265 78.0112L140.815 75.3632C134.873 78.6173 130.064 83.2184 126.399 89.139L128.966 90.7282ZM115.785 77.4191C120.677 79.928 124.18 84.2019 126.25 90.411L129.114 89.4562C126.836 82.6226 122.867 77.658 117.163 74.7326L115.785 77.4191ZM98.7439 73.5096C105.049 73.5096 110.719 74.8213 115.785 77.4191L117.163 74.7326C111.631 71.8959 105.482 70.4904 98.7439 70.4904V73.5096ZM65.9713 90.7643C73.5606 79.2495 84.4218 73.5096 98.7439 73.5096V70.4904C83.4484 70.4904 71.6209 76.7062 63.4504 89.1029L65.9713 90.7643ZM64.3033 91.4431H64.7108V88.424H64.3033V91.4431ZM62.7937 74.4455V89.9336H65.8128V74.4455H62.7937ZM217.542 156.177L208.184 166.62L210.433 168.635L219.79 158.192L217.542 156.177ZM218.666 158.694H231.929V155.675H218.666V158.694ZM230.42 157.185V179.805H233.439V157.185H230.42ZM231.929 178.296H209.308V181.315H231.929V178.296ZM210.818 179.805V167.628H207.799V179.805H210.818Z" fill="white" mask="url(#path-2-outside-1_683_89)"/>
</svg>
