<svg width="92" height="19" viewBox="0 0 92 19" fill="none" xmlns="http://www.w3.org/2000/svg">
<g opacity="0.3">
<mask id="path-1-outside-1_654_470" maskUnits="userSpaceOnUse" x="-0.44043" y="4.11035" width="24" height="15" fill="black">
<rect fill="white" x="-0.44043" y="4.11035" width="24" height="15"/>
<path fill-rule="evenodd" clip-rule="evenodd" d="M2.50884 5.40274H0.55957V17.9999H2.63067V10.1541C2.63067 9.91043 2.68752 9.60991 2.80123 9.25255C2.93118 8.87894 3.12611 8.52157 3.38601 8.18045C3.66216 7.83933 4.0114 7.54694 4.43374 7.30328C4.87233 7.05962 5.39213 6.93779 5.99316 6.93779C6.46423 6.93779 6.84596 7.01089 7.13835 7.15708C7.44699 7.28704 7.69064 7.48196 7.86933 7.74186C8.04801 7.98552 8.16984 8.27791 8.23481 8.61904C8.31603 8.96016 8.35664 9.33377 8.35664 9.73986V17.9999H10.4277V10.1541C10.4277 9.17945 10.7201 8.39974 11.3049 7.81496C11.8897 7.23018 12.6938 6.93779 13.7171 6.93779C14.2207 6.93779 14.6268 7.01089 14.9354 7.15708C15.2603 7.30328 15.5121 7.50633 15.6908 7.76623C15.8694 8.00989 15.9913 8.30228 16.0563 8.6434C16.1212 8.98452 16.1537 9.35001 16.1537 9.73986V17.9117L18.2248 15.6003V8.76523C18.2248 8.11547 18.1192 7.56318 17.9081 7.10835C17.7131 6.63728 17.4289 6.25555 17.0553 5.96316C16.6979 5.67077 16.2593 5.4596 15.7395 5.32964C15.2359 5.18345 14.6674 5.11035 14.0339 5.11035C13.2055 5.11035 12.442 5.29716 11.7435 5.67077C11.0613 6.04438 10.509 6.5723 10.0866 7.25455C9.82672 6.47484 9.38001 5.92255 8.7465 5.59767C8.11299 5.27279 7.40638 5.11035 6.62667 5.11035C4.85608 5.11035 3.49972 5.82508 2.55757 7.25455H2.50884V5.40274ZM19.8461 16.5438L20.9649 15.2953H22.5507V17.9999H19.8461V16.5438Z"/>
</mask>
<path fill-rule="evenodd" clip-rule="evenodd" d="M2.50884 5.40274H0.55957V17.9999H2.63067V10.1541C2.63067 9.91043 2.68752 9.60991 2.80123 9.25255C2.93118 8.87894 3.12611 8.52157 3.38601 8.18045C3.66216 7.83933 4.0114 7.54694 4.43374 7.30328C4.87233 7.05962 5.39213 6.93779 5.99316 6.93779C6.46423 6.93779 6.84596 7.01089 7.13835 7.15708C7.44699 7.28704 7.69064 7.48196 7.86933 7.74186C8.04801 7.98552 8.16984 8.27791 8.23481 8.61904C8.31603 8.96016 8.35664 9.33377 8.35664 9.73986V17.9999H10.4277V10.1541C10.4277 9.17945 10.7201 8.39974 11.3049 7.81496C11.8897 7.23018 12.6938 6.93779 13.7171 6.93779C14.2207 6.93779 14.6268 7.01089 14.9354 7.15708C15.2603 7.30328 15.5121 7.50633 15.6908 7.76623C15.8694 8.00989 15.9913 8.30228 16.0563 8.6434C16.1212 8.98452 16.1537 9.35001 16.1537 9.73986V17.9117L18.2248 15.6003V8.76523C18.2248 8.11547 18.1192 7.56318 17.9081 7.10835C17.7131 6.63728 17.4289 6.25555 17.0553 5.96316C16.6979 5.67077 16.2593 5.4596 15.7395 5.32964C15.2359 5.18345 14.6674 5.11035 14.0339 5.11035C13.2055 5.11035 12.442 5.29716 11.7435 5.67077C11.0613 6.04438 10.509 6.5723 10.0866 7.25455C9.82672 6.47484 9.38001 5.92255 8.7465 5.59767C8.11299 5.27279 7.40638 5.11035 6.62667 5.11035C4.85608 5.11035 3.49972 5.82508 2.55757 7.25455H2.50884V5.40274ZM19.8461 16.5438L20.9649 15.2953H22.5507V17.9999H19.8461V16.5438Z" fill="black"/>
<path d="M0.55957 5.40274V5.22225H0.379083V5.40274H0.55957ZM2.50884 5.40274H2.68933V5.22225H2.50884V5.40274ZM0.55957 17.9999H0.379083V18.1804H0.55957V17.9999ZM2.63067 17.9999V18.1804H2.81116V17.9999H2.63067ZM2.80123 9.25255L2.6307 9.19323L2.62924 9.19782L2.80123 9.25255ZM3.38601 8.18045L3.24567 8.06684L3.24244 8.07107L3.38601 8.18045ZM4.43374 7.30328L4.34608 7.14548L4.34355 7.14694L4.43374 7.30328ZM7.13835 7.15708L7.05746 7.31886L7.06831 7.32343L7.13835 7.15708ZM7.86933 7.74186L7.72053 7.84416L7.72378 7.8486L7.86933 7.74186ZM8.23481 8.61904L8.05733 8.65284L8.05923 8.66084L8.23481 8.61904ZM8.35664 17.9999H8.17616V18.1804H8.35664V17.9999ZM10.4277 17.9999V18.1804H10.6082V17.9999H10.4277ZM11.3049 7.81496L11.4325 7.94259L11.4325 7.94259L11.3049 7.81496ZM14.9354 7.15708L14.8581 7.32023L14.8614 7.32167L14.9354 7.15708ZM15.6908 7.76623L15.542 7.86853L15.5452 7.87296L15.6908 7.76623ZM16.0563 8.6434L15.879 8.67717L15.879 8.67717L16.0563 8.6434ZM16.1537 17.9117H15.9732V18.3835L16.2881 18.0321L16.1537 17.9117ZM18.2248 15.6003L18.3592 15.7208L18.4053 15.6693V15.6003H18.2248ZM17.9081 7.10835L17.7411 7.17742L17.7444 7.18436L17.9081 7.10835ZM17.0553 5.96316L16.9409 6.10288L16.944 6.10529L17.0553 5.96316ZM15.7395 5.32964L15.6891 5.5031L15.6957 5.50474L15.7395 5.32964ZM11.7435 5.67077L11.6584 5.51161L11.6568 5.51246L11.7435 5.67077ZM10.0866 7.25455L9.91539 7.31162L10.0373 7.6772L10.2401 7.34955L10.0866 7.25455ZM8.7465 5.59767L8.66414 5.75827L8.66414 5.75827L8.7465 5.59767ZM2.55757 7.25455V7.43504H2.65478L2.70827 7.35387L2.55757 7.25455ZM2.50884 7.25455H2.32835V7.43504H2.50884V7.25455ZM20.9649 15.2953V15.1148H20.8842L20.8304 15.1748L20.9649 15.2953ZM19.8461 16.5438L19.7117 16.4234L19.6656 16.4748V16.5438H19.8461ZM22.5507 15.2953H22.7312V15.1148H22.5507V15.2953ZM22.5507 17.9999V18.1804H22.7312V17.9999H22.5507ZM19.8461 17.9999H19.6656V18.1804H19.8461V17.9999ZM0.55957 5.58323H2.50884V5.22225H0.55957V5.58323ZM0.740058 17.9999V5.40274H0.379083V17.9999H0.740058ZM2.63067 17.8194H0.55957V18.1804H2.63067V17.8194ZM2.45018 10.1541V17.9999H2.81116V10.1541H2.45018ZM2.62924 9.19782C2.51259 9.56443 2.45018 9.88468 2.45018 10.1541H2.81116C2.81116 9.93617 2.86245 9.6554 2.97322 9.30727L2.62924 9.19782ZM3.24244 8.07107C2.97195 8.42608 2.76748 8.80018 2.63076 9.19325L2.9717 9.31184C3.09488 8.9577 3.28026 8.61706 3.52958 8.28983L3.24244 8.07107ZM4.34355 7.14694C3.90415 7.40044 3.53727 7.70675 3.24573 8.06689L3.52629 8.29401C3.78704 7.97191 4.11865 7.69343 4.52393 7.45962L4.34355 7.14694ZM5.99316 6.7573C5.36752 6.7573 4.81633 6.88426 4.34609 7.1455L4.52139 7.46105C4.92832 7.23498 5.41674 7.11828 5.99316 7.11828V6.7573ZM7.21907 6.99565C6.89304 6.83264 6.48076 6.7573 5.99316 6.7573V7.11828C6.4477 7.11828 6.79888 7.18914 7.05763 7.31852L7.21907 6.99565ZM8.01806 7.63961C7.81859 7.34947 7.54679 7.13322 7.20839 6.99074L7.06831 7.32343C7.34718 7.44085 7.5627 7.61445 7.7206 7.84412L8.01806 7.63961ZM8.41211 8.58526C8.34286 8.2217 8.21165 7.90346 8.01487 7.63513L7.72378 7.8486C7.88437 8.06759 7.99681 8.33413 8.05751 8.65281L8.41211 8.58526ZM8.53713 9.73986C8.53713 9.32185 8.49534 8.934 8.41039 8.57723L8.05923 8.66084C8.13673 8.98631 8.17616 9.34568 8.17616 9.73986H8.53713ZM8.53713 17.9999V9.73986H8.17616V17.9999H8.53713ZM10.4277 17.8194H8.35664V18.1804H10.4277V17.8194ZM10.2473 10.1541V17.9999H10.6082V10.1541H10.2473ZM11.1773 7.68734C10.5527 8.31196 10.2473 9.14078 10.2473 10.1541H10.6082C10.6082 9.21812 10.8876 8.48753 11.4325 7.94259L11.1773 7.68734ZM13.7171 6.7573C12.6579 6.7573 11.8036 7.06105 11.1773 7.68734L11.4325 7.94259C11.9758 7.39931 12.7296 7.11828 13.7171 7.11828V6.7573ZM15.0127 6.99397C14.6712 6.83222 14.2358 6.7573 13.7171 6.7573V7.11828C14.2056 7.11828 14.5824 7.18956 14.8582 7.3202L15.0127 6.99397ZM15.8395 7.66398C15.6398 7.37346 15.3605 7.15045 15.0095 6.99249L14.8614 7.32167C15.1601 7.45611 15.3844 7.6392 15.542 7.86848L15.8395 7.66398ZM16.2336 8.60963C16.1643 8.24606 16.0331 7.92782 15.8363 7.6595L15.5452 7.87296C15.7058 8.09195 15.8183 8.3585 15.879 8.67717L16.2336 8.60963ZM16.3342 9.73986C16.3342 9.34004 16.3009 8.96314 16.2336 8.60963L15.879 8.67717C15.9416 9.0059 15.9732 9.35999 15.9732 9.73986H16.3342ZM16.3342 17.9117V9.73986H15.9732V17.9117H16.3342ZM16.2881 18.0321L18.3592 15.7208L18.0904 15.4799L16.0193 17.7912L16.2881 18.0321ZM18.0443 8.76523V15.6003H18.4053V8.76523H18.0443ZM17.7444 7.18436C17.9417 7.60943 18.0443 8.13427 18.0443 8.76523H18.4053C18.4053 8.09668 18.2967 7.51694 18.0718 7.03235L17.7444 7.18436ZM16.944 6.10529C17.2913 6.37708 17.5573 6.73283 17.7413 7.17736L18.0748 7.03934C17.8689 6.54173 17.5664 6.13402 17.1665 5.82102L16.944 6.10529ZM15.6957 5.50474C16.1938 5.62927 16.6073 5.82982 16.941 6.10285L17.1695 5.82347C16.7885 5.51172 16.3248 5.28992 15.7833 5.15455L15.6957 5.50474ZM14.0339 5.29084C14.6538 5.29084 15.2049 5.36239 15.6892 5.50298L15.7898 5.15631C15.2669 5.00451 14.681 4.92986 14.0339 4.92986V5.29084ZM11.8286 5.82992C12.4997 5.47097 13.2337 5.29084 14.0339 5.29084V4.92986C13.1772 4.92986 12.3843 5.12335 11.6584 5.51161L11.8286 5.82992ZM10.2401 7.34955C10.6466 6.69295 11.1762 6.18722 11.8302 5.82907L11.6568 5.51246C10.9463 5.90154 10.3714 6.45166 9.93316 7.15955L10.2401 7.34955ZM8.66414 5.75827C9.2491 6.05825 9.66794 6.56925 9.91539 7.31162L10.2578 7.19747C9.9855 6.38043 9.51092 5.78684 8.82886 5.43707L8.66414 5.75827ZM6.62667 5.29084C7.38051 5.29084 8.05847 5.44767 8.66414 5.75827L8.82886 5.43707C8.1675 5.09791 7.43224 4.92986 6.62667 4.92986V5.29084ZM2.70827 7.35387C3.61567 5.97713 4.91427 5.29084 6.62667 5.29084V4.92986C4.7979 4.92986 3.38376 5.67304 2.40687 7.15522L2.70827 7.35387ZM2.50884 7.43504H2.55757V7.07406H2.50884V7.43504ZM2.32835 5.40274V7.25455H2.68933V5.40274H2.32835ZM20.8304 15.1748L19.7117 16.4234L19.9805 16.6643L21.0993 15.4157L20.8304 15.1748ZM20.9649 15.4758H22.5507V15.1148H20.9649V15.4758ZM22.3702 15.2953V17.9999H22.7312V15.2953H22.3702ZM22.5507 17.8194H19.8461V18.1804H22.5507V17.8194ZM20.0266 17.9999V16.5438H19.6656V17.9999H20.0266Z" fill="black" mask="url(#path-1-outside-1_654_470)"/>
</g>
<mask id="path-3-outside-2_654_470" maskUnits="userSpaceOnUse" x="24.0234" y="-0.543457" width="68" height="20" fill="black">
<rect fill="white" x="24.0234" y="-0.543457" width="68" height="20"/>
<path fill-rule="evenodd" clip-rule="evenodd" d="M61.5362 17.4639C62.4459 18.0162 63.5018 18.2923 64.7038 18.2923C65.8084 18.2923 66.7262 18.0568 67.4571 17.5857C68.1881 17.1147 68.7485 16.5867 69.1384 16.002L69.3333 18H71.1851V0.456543H69.1384V7.93686C68.716 7.20588 68.1231 6.63735 67.3597 6.23125C66.5962 5.82515 65.719 5.6221 64.7282 5.6221C63.5099 5.6221 62.454 5.89825 61.5606 6.45054C60.6672 6.98659 59.9687 7.73381 59.4651 8.6922C58.9616 9.63435 58.7098 10.7146 58.7098 11.9329C58.7098 13.1512 58.9535 14.2395 59.4408 15.1979C59.9443 16.1563 60.6428 16.9116 61.5362 17.4639ZM67.0673 15.9532C66.45 16.3268 65.7353 16.5136 64.9231 16.5136C64.1271 16.5136 63.4124 16.3268 62.7789 15.9532C62.1616 15.5634 61.6743 15.0273 61.3169 14.3451C60.9758 13.6628 60.8053 12.8669 60.8053 11.9572C60.8053 11.0476 60.9758 10.2516 61.3169 9.56937C61.6743 8.88713 62.1616 8.3592 62.7789 7.98559C63.4124 7.59574 64.1271 7.40081 64.9231 7.40081C65.7353 7.40081 66.45 7.59574 67.0673 7.98559C67.7008 8.3592 68.1881 8.88713 68.5292 9.56937C68.8866 10.2516 69.0653 11.0476 69.0653 11.9572C69.0653 12.8669 68.8866 13.6628 68.5292 14.3451C68.1881 15.0273 67.7008 15.5634 67.0673 15.9532ZM38.9982 17.1959C39.6317 17.7319 40.5008 18 41.6054 18H43.4572V16.2456H42.1901C41.4104 16.2456 40.8663 16.1157 40.5576 15.8558C40.249 15.5796 40.0947 15.0598 40.0947 14.2963V7.64447H43.6521V5.91449H40.0947V3.01496H38.316L38.0479 5.91449H35.9525V7.64447H38.0479V14.2963C38.0479 15.6933 38.3647 16.6598 38.9982 17.1959ZM26.7047 17.1959C27.6631 17.9269 28.8651 18.2923 30.3108 18.2923C31.7403 18.2923 32.8692 17.9431 33.6977 17.2446C34.5424 16.5299 34.9566 15.6283 34.9403 14.54C34.9403 13.6628 34.721 12.9968 34.2825 12.542C33.8601 12.0709 33.3078 11.7217 32.6256 11.4943C31.9596 11.2506 31.253 11.0476 30.5058 10.8851C29.6286 10.6902 28.9301 10.4547 28.4103 10.1785C27.9067 9.90237 27.6549 9.52064 27.6549 9.03332C27.6549 8.52976 27.8499 8.12367 28.2397 7.81503C28.6458 7.5064 29.2144 7.35208 29.9453 7.35208C30.6926 7.35208 31.2855 7.53076 31.724 7.88813C32.1789 8.22925 32.4469 8.70845 32.5281 9.32571H34.5505C34.4205 8.13991 33.9413 7.23025 33.1129 6.59674C32.3007 5.94698 31.253 5.6221 29.9697 5.6221C28.6215 5.6221 27.5494 5.96323 26.7534 6.64547C25.9737 7.31147 25.5839 8.1724 25.5839 9.22825C25.5839 9.95923 25.8031 10.5521 26.2417 11.007C26.6803 11.4455 27.2245 11.7867 27.8742 12.0303C28.524 12.274 29.1738 12.4608 29.8235 12.5907C30.7819 12.7857 31.521 13.005 32.0408 13.2486C32.5769 13.4923 32.8449 13.9796 32.8449 14.7106C32.8449 15.2141 32.6418 15.6527 32.2357 16.0263C31.8296 16.3837 31.1961 16.5624 30.3352 16.5624C29.4093 16.5624 28.6702 16.335 28.1179 15.8801C27.5819 15.4091 27.2489 14.8568 27.1189 14.2233H25.0234C25.1859 15.474 25.7463 16.4649 26.7047 17.1959ZM50.1753 18.2923C48.7458 18.2923 47.6087 17.8619 46.7641 17.001C45.9194 16.1238 45.497 14.7837 45.497 12.9806V5.91449H47.5438V12.7613C47.5438 15.2791 48.5753 16.538 50.6382 16.538C51.6941 16.538 52.5631 16.1644 53.2454 15.4172C53.9439 14.6537 54.2931 13.5735 54.2931 12.1765V5.91449H56.3398V18H54.488L54.3418 15.8314C53.9682 16.5949 53.4078 17.1959 52.6606 17.6345C51.9296 18.0731 51.1012 18.2923 50.1753 18.2923ZM75.2769 3.23425C74.8708 3.23425 74.5296 3.1043 74.2535 2.8444C73.9936 2.56825 73.8636 2.22713 73.8636 1.82103C73.8636 1.43118 73.9936 1.1063 74.2535 0.846396C74.5296 0.586494 74.8708 0.456543 75.2769 0.456543C75.6667 0.456543 75.9997 0.586494 76.2759 0.846396C76.552 1.1063 76.6901 1.43118 76.6901 1.82103C76.6901 2.22713 76.552 2.56825 76.2759 2.8444C75.9997 3.1043 75.6667 3.23425 75.2769 3.23425ZM74.2535 18V5.91449H76.3002V18H74.2535ZM81.8132 17.5126C82.7229 18.0324 83.7462 18.2923 84.8833 18.2923C86.0204 18.2923 87.0437 18.0324 87.9534 17.5126C88.8793 16.9928 89.6103 16.2619 90.1463 15.3197C90.6824 14.3613 90.9504 13.2405 90.9504 11.9572C90.9504 10.674 90.6824 9.56125 90.1463 8.6191C89.9627 8.28051 89.7547 7.96928 89.5224 7.68543L88.1679 9.19707C88.2117 9.27023 88.2539 9.3456 88.2945 9.42318C88.6681 10.1054 88.8549 10.9501 88.8549 11.9572C88.8549 12.9643 88.6681 13.809 88.2945 14.4913C87.9209 15.1735 87.4336 15.6852 86.8326 16.0263C86.2315 16.3674 85.5818 16.538 84.8833 16.538C84.2011 16.538 83.5594 16.3674 82.9584 16.0263C82.3736 15.6852 81.8944 15.1735 81.5208 14.4913C81.1472 13.809 80.9604 12.9643 80.9604 11.9572C80.9604 10.9501 81.1472 10.1054 81.5208 9.42318C81.8944 8.74093 82.3817 8.22925 82.9828 7.88813C83.5838 7.54701 84.2335 7.37645 84.932 7.37645C85.4599 7.37645 85.9634 7.47855 86.4427 7.68275L87.724 6.25277C86.8853 5.83232 85.9547 5.6221 84.932 5.6221C83.795 5.6221 82.7635 5.88201 81.8376 6.40181C80.9279 6.92162 80.2051 7.66071 79.669 8.6191C79.133 9.56125 78.8649 10.674 78.8649 11.9572C78.8649 13.2405 79.1248 14.3613 79.6446 15.3197C80.1807 16.2619 80.9035 16.9928 81.8132 17.5126Z"/>
</mask>
<path fill-rule="evenodd" clip-rule="evenodd" d="M61.5362 17.4639C62.4459 18.0162 63.5018 18.2923 64.7038 18.2923C65.8084 18.2923 66.7262 18.0568 67.4571 17.5857C68.1881 17.1147 68.7485 16.5867 69.1384 16.002L69.3333 18H71.1851V0.456543H69.1384V7.93686C68.716 7.20588 68.1231 6.63735 67.3597 6.23125C66.5962 5.82515 65.719 5.6221 64.7282 5.6221C63.5099 5.6221 62.454 5.89825 61.5606 6.45054C60.6672 6.98659 59.9687 7.73381 59.4651 8.6922C58.9616 9.63435 58.7098 10.7146 58.7098 11.9329C58.7098 13.1512 58.9535 14.2395 59.4408 15.1979C59.9443 16.1563 60.6428 16.9116 61.5362 17.4639ZM67.0673 15.9532C66.45 16.3268 65.7353 16.5136 64.9231 16.5136C64.1271 16.5136 63.4124 16.3268 62.7789 15.9532C62.1616 15.5634 61.6743 15.0273 61.3169 14.3451C60.9758 13.6628 60.8053 12.8669 60.8053 11.9572C60.8053 11.0476 60.9758 10.2516 61.3169 9.56937C61.6743 8.88713 62.1616 8.3592 62.7789 7.98559C63.4124 7.59574 64.1271 7.40081 64.9231 7.40081C65.7353 7.40081 66.45 7.59574 67.0673 7.98559C67.7008 8.3592 68.1881 8.88713 68.5292 9.56937C68.8866 10.2516 69.0653 11.0476 69.0653 11.9572C69.0653 12.8669 68.8866 13.6628 68.5292 14.3451C68.1881 15.0273 67.7008 15.5634 67.0673 15.9532ZM38.9982 17.1959C39.6317 17.7319 40.5008 18 41.6054 18H43.4572V16.2456H42.1901C41.4104 16.2456 40.8663 16.1157 40.5576 15.8558C40.249 15.5796 40.0947 15.0598 40.0947 14.2963V7.64447H43.6521V5.91449H40.0947V3.01496H38.316L38.0479 5.91449H35.9525V7.64447H38.0479V14.2963C38.0479 15.6933 38.3647 16.6598 38.9982 17.1959ZM26.7047 17.1959C27.6631 17.9269 28.8651 18.2923 30.3108 18.2923C31.7403 18.2923 32.8692 17.9431 33.6977 17.2446C34.5424 16.5299 34.9566 15.6283 34.9403 14.54C34.9403 13.6628 34.721 12.9968 34.2825 12.542C33.8601 12.0709 33.3078 11.7217 32.6256 11.4943C31.9596 11.2506 31.253 11.0476 30.5058 10.8851C29.6286 10.6902 28.9301 10.4547 28.4103 10.1785C27.9067 9.90237 27.6549 9.52064 27.6549 9.03332C27.6549 8.52976 27.8499 8.12367 28.2397 7.81503C28.6458 7.5064 29.2144 7.35208 29.9453 7.35208C30.6926 7.35208 31.2855 7.53076 31.724 7.88813C32.1789 8.22925 32.4469 8.70845 32.5281 9.32571H34.5505C34.4205 8.13991 33.9413 7.23025 33.1129 6.59674C32.3007 5.94698 31.253 5.6221 29.9697 5.6221C28.6215 5.6221 27.5494 5.96323 26.7534 6.64547C25.9737 7.31147 25.5839 8.1724 25.5839 9.22825C25.5839 9.95923 25.8031 10.5521 26.2417 11.007C26.6803 11.4455 27.2245 11.7867 27.8742 12.0303C28.524 12.274 29.1738 12.4608 29.8235 12.5907C30.7819 12.7857 31.521 13.005 32.0408 13.2486C32.5769 13.4923 32.8449 13.9796 32.8449 14.7106C32.8449 15.2141 32.6418 15.6527 32.2357 16.0263C31.8296 16.3837 31.1961 16.5624 30.3352 16.5624C29.4093 16.5624 28.6702 16.335 28.1179 15.8801C27.5819 15.4091 27.2489 14.8568 27.1189 14.2233H25.0234C25.1859 15.474 25.7463 16.4649 26.7047 17.1959ZM50.1753 18.2923C48.7458 18.2923 47.6087 17.8619 46.7641 17.001C45.9194 16.1238 45.497 14.7837 45.497 12.9806V5.91449H47.5438V12.7613C47.5438 15.2791 48.5753 16.538 50.6382 16.538C51.6941 16.538 52.5631 16.1644 53.2454 15.4172C53.9439 14.6537 54.2931 13.5735 54.2931 12.1765V5.91449H56.3398V18H54.488L54.3418 15.8314C53.9682 16.5949 53.4078 17.1959 52.6606 17.6345C51.9296 18.0731 51.1012 18.2923 50.1753 18.2923ZM75.2769 3.23425C74.8708 3.23425 74.5296 3.1043 74.2535 2.8444C73.9936 2.56825 73.8636 2.22713 73.8636 1.82103C73.8636 1.43118 73.9936 1.1063 74.2535 0.846396C74.5296 0.586494 74.8708 0.456543 75.2769 0.456543C75.6667 0.456543 75.9997 0.586494 76.2759 0.846396C76.552 1.1063 76.6901 1.43118 76.6901 1.82103C76.6901 2.22713 76.552 2.56825 76.2759 2.8444C75.9997 3.1043 75.6667 3.23425 75.2769 3.23425ZM74.2535 18V5.91449H76.3002V18H74.2535ZM81.8132 17.5126C82.7229 18.0324 83.7462 18.2923 84.8833 18.2923C86.0204 18.2923 87.0437 18.0324 87.9534 17.5126C88.8793 16.9928 89.6103 16.2619 90.1463 15.3197C90.6824 14.3613 90.9504 13.2405 90.9504 11.9572C90.9504 10.674 90.6824 9.56125 90.1463 8.6191C89.9627 8.28051 89.7547 7.96928 89.5224 7.68543L88.1679 9.19707C88.2117 9.27023 88.2539 9.3456 88.2945 9.42318C88.6681 10.1054 88.8549 10.9501 88.8549 11.9572C88.8549 12.9643 88.6681 13.809 88.2945 14.4913C87.9209 15.1735 87.4336 15.6852 86.8326 16.0263C86.2315 16.3674 85.5818 16.538 84.8833 16.538C84.2011 16.538 83.5594 16.3674 82.9584 16.0263C82.3736 15.6852 81.8944 15.1735 81.5208 14.4913C81.1472 13.809 80.9604 12.9643 80.9604 11.9572C80.9604 10.9501 81.1472 10.1054 81.5208 9.42318C81.8944 8.74093 82.3817 8.22925 82.9828 7.88813C83.5838 7.54701 84.2335 7.37645 84.932 7.37645C85.4599 7.37645 85.9634 7.47855 86.4427 7.68275L87.724 6.25277C86.8853 5.83232 85.9547 5.6221 84.932 5.6221C83.795 5.6221 82.7635 5.88201 81.8376 6.40181C80.9279 6.92162 80.2051 7.66071 79.669 8.6191C79.133 9.56125 78.8649 10.674 78.8649 11.9572C78.8649 13.2405 79.1248 14.3613 79.6446 15.3197C80.1807 16.2619 80.9035 16.9928 81.8132 17.5126Z" fill="black"/>
<path d="M61.5362 17.4639L61.4413 17.6174L61.4426 17.6182L61.5362 17.4639ZM69.1384 16.002L69.318 15.9844L69.2689 15.4808L68.9882 15.9018L69.1384 16.002ZM69.3333 18L69.1537 18.0175L69.1696 18.1804H69.3333V18ZM71.1851 18V18.1804H71.3656V18H71.1851ZM71.1851 0.456543H71.3656V0.276055H71.1851V0.456543ZM69.1384 0.456543V0.276055H68.9579V0.456543H69.1384ZM69.1384 7.93686L68.9821 8.02715L69.3189 8.61002V7.93686H69.1384ZM67.3597 6.23125L67.2749 6.3906L67.2749 6.3906L67.3597 6.23125ZM61.5606 6.45054L61.6535 6.60532L61.6555 6.60406L61.5606 6.45054ZM59.4651 8.6922L59.6243 8.77728L59.6249 8.77615L59.4651 8.6922ZM59.4408 15.1979L59.2799 15.2797L59.281 15.2818L59.4408 15.1979ZM67.0673 15.9532L67.1608 16.1076L67.1619 16.1069L67.0673 15.9532ZM62.7789 15.9532L62.6825 16.1059L62.6872 16.1087L62.7789 15.9532ZM61.3169 14.3451L61.1555 14.4258L61.1571 14.4288L61.3169 14.3451ZM61.3169 9.56937L61.157 9.48561L61.1555 9.48866L61.3169 9.56937ZM62.7789 7.98559L62.8724 8.14L62.8735 8.13931L62.7789 7.98559ZM67.0673 7.98559L66.9709 8.13826L66.9756 8.14106L67.0673 7.98559ZM68.5292 9.56937L68.3678 9.6501L68.3694 9.65312L68.5292 9.56937ZM68.5292 14.3451L68.3693 14.2613L68.3678 14.2644L68.5292 14.3451ZM43.4572 18V18.1804H43.6376V18H43.4572ZM43.4572 16.2456H43.6376V16.0651H43.4572V16.2456ZM40.5576 15.8558L40.4372 15.9903L40.4414 15.9938L40.5576 15.8558ZM40.0947 7.64447V7.46398H39.9142V7.64447H40.0947ZM43.6521 7.64447V7.82496H43.8326V7.64447H43.6521ZM43.6521 5.91449H43.8326V5.73401H43.6521V5.91449ZM40.0947 5.91449H39.9142V6.09498H40.0947V5.91449ZM40.0947 3.01496H40.2752V2.83447H40.0947V3.01496ZM38.316 3.01496V2.83447H38.1514L38.1362 2.99835L38.316 3.01496ZM38.0479 5.91449V6.09498H38.2125L38.2277 5.93111L38.0479 5.91449ZM35.9525 5.91449V5.73401H35.772V5.91449H35.9525ZM35.9525 7.64447H35.772V7.82496H35.9525V7.64447ZM38.0479 7.64447H38.2284V7.46398H38.0479V7.64447ZM26.7047 17.1959L26.8141 17.0524L26.8141 17.0524L26.7047 17.1959ZM33.6977 17.2446L33.814 17.3826L33.8143 17.3824L33.6977 17.2446ZM34.9403 14.54L34.7598 14.54L34.7599 14.5427L34.9403 14.54ZM34.2825 12.542L34.148 12.6626L34.1525 12.6673L34.2825 12.542ZM32.6256 11.4943L32.5635 11.6638L32.5685 11.6655L32.6256 11.4943ZM30.5058 10.8851L30.4666 11.0613L30.4674 11.0615L30.5058 10.8851ZM28.4103 10.1785L28.3235 10.3368L28.3256 10.3379L28.4103 10.1785ZM28.2397 7.81503L28.1305 7.67131L28.1277 7.67352L28.2397 7.81503ZM31.724 7.88813L31.6099 8.02816L31.6158 8.03252L31.724 7.88813ZM32.5281 9.32571L32.3492 9.34926L32.3698 9.5062H32.5281V9.32571ZM34.5505 9.32571V9.5062H34.7518L34.7299 9.30605L34.5505 9.32571ZM33.1129 6.59674L33.0001 6.73771L33.0033 6.74011L33.1129 6.59674ZM26.7534 6.64547L26.8706 6.78271L26.8709 6.78251L26.7534 6.64547ZM26.2417 11.007L26.1118 11.1323L26.1141 11.1346L26.2417 11.007ZM29.8235 12.5907L29.8595 12.4139L29.8589 12.4138L29.8235 12.5907ZM32.0408 13.2486L31.9642 13.4121L31.9661 13.4129L32.0408 13.2486ZM32.2357 16.0263L32.355 16.1619L32.3579 16.1592L32.2357 16.0263ZM28.1179 15.8801L27.9987 16.0158L28.0032 16.0195L28.1179 15.8801ZM27.1189 14.2233L27.2957 14.187L27.2661 14.0428H27.1189V14.2233ZM25.0234 14.2233V14.0428H24.818L24.8445 14.2465L25.0234 14.2233ZM46.7641 17.001L46.634 17.1262L46.6352 17.1274L46.7641 17.001ZM45.497 5.91449V5.73401H45.3165V5.91449H45.497ZM47.5438 5.91449H47.7243V5.73401H47.5438V5.91449ZM53.2454 15.4172L53.1122 15.2953L53.1121 15.2955L53.2454 15.4172ZM54.2931 5.91449V5.73401H54.1126V5.91449H54.2931ZM56.3398 5.91449H56.5203V5.73401H56.3398V5.91449ZM56.3398 18V18.1804H56.5203V18H56.3398ZM54.488 18L54.308 18.0121L54.3193 18.1804H54.488V18ZM54.3418 15.8314L54.5219 15.8193L54.4765 15.1456L54.1797 15.7521L54.3418 15.8314ZM52.6606 17.6345L52.5692 17.4788L52.5677 17.4797L52.6606 17.6345ZM74.2535 2.8444L74.1218 2.96832L74.1298 2.97583L74.2535 2.8444ZM74.2535 0.846396L74.1297 0.714904L74.1259 0.718772L74.2535 0.846396ZM76.2759 0.846396L76.3996 0.714965L76.3996 0.714965L76.2759 0.846396ZM76.2759 2.8444L76.3996 2.97589L76.4035 2.97202L76.2759 2.8444ZM74.2535 5.91449V5.73401H74.073V5.91449H74.2535ZM74.2535 18H74.073V18.1804H74.2535V18ZM76.3002 5.91449H76.4807V5.73401H76.3002V5.91449ZM76.3002 18V18.1804H76.4807V18H76.3002ZM87.9534 17.5126L87.865 17.3553L87.8638 17.3559L87.9534 17.5126ZM90.1463 15.3197L90.3032 15.409L90.3038 15.4078L90.1463 15.3197ZM90.1463 8.6191L89.9876 8.70517L89.9895 8.70836L90.1463 8.6191ZM89.5224 7.68543L89.6621 7.57112L89.5286 7.40804L89.388 7.56499L89.5224 7.68543ZM88.1679 9.19707L88.0335 9.07662L87.9447 9.17565L88.013 9.28975L88.1679 9.19707ZM88.2945 9.42318L88.1346 9.50694L88.1362 9.50987L88.2945 9.42318ZM88.2945 14.4913L88.1362 14.4046L88.1362 14.4046L88.2945 14.4913ZM82.9584 16.0263L82.8674 16.1822L82.8693 16.1833L82.9584 16.0263ZM81.5208 14.4913L81.6791 14.4046L81.6791 14.4046L81.5208 14.4913ZM81.5208 9.42318L81.3625 9.33649L81.3625 9.33649L81.5208 9.42318ZM86.4427 7.68275L86.3719 7.8488L86.4908 7.89946L86.5771 7.8032L86.4427 7.68275ZM87.724 6.25277L87.8584 6.37321L88.0161 6.19728L87.8049 6.09142L87.724 6.25277ZM81.8376 6.40181L81.7492 6.24443L81.748 6.2451L81.8376 6.40181ZM79.669 8.6191L79.8259 8.70836L79.8265 8.70721L79.669 8.6191ZM79.6446 15.3197L79.486 15.4058L79.4878 15.409L79.6446 15.3197ZM64.7038 18.1119C63.5304 18.1119 62.5078 17.8426 61.6299 17.3096L61.4426 17.6182C62.384 18.1898 63.4731 18.4728 64.7038 18.4728V18.1119ZM67.3594 17.434C66.6645 17.8818 65.783 18.1119 64.7038 18.1119V18.4728C65.8338 18.4728 66.7878 18.2318 67.5549 17.7375L67.3594 17.434ZM68.9882 15.9018C68.6149 16.4617 68.0743 16.9733 67.3594 17.434L67.5549 17.7375C68.3019 17.2561 68.8821 16.7117 69.2886 16.1021L68.9882 15.9018ZM69.5129 17.9824L69.318 15.9844L68.9588 16.0195L69.1537 18.0175L69.5129 17.9824ZM71.1851 17.8195H69.3333V18.1804H71.1851V17.8195ZM71.0046 0.456543V18H71.3656V0.456543H71.0046ZM69.1384 0.637031H71.1851V0.276055H69.1384V0.637031ZM69.3189 7.93686V0.456543H68.9579V7.93686H69.3189ZM67.2749 6.3906C68.0093 6.78123 68.5771 7.32618 68.9821 8.02715L69.2947 7.84657C68.855 7.08559 68.237 6.49346 67.4444 6.0719L67.2749 6.3906ZM64.7282 5.80259C65.6938 5.80259 66.5411 6.00029 67.2749 6.3906L67.4444 6.0719C66.6513 5.65002 65.7443 5.44162 64.7282 5.44162V5.80259ZM61.6555 6.60406C62.5161 6.07207 63.5379 5.80259 64.7282 5.80259V5.44162C63.4818 5.44162 62.3919 5.72444 61.4657 6.29702L61.6555 6.60406ZM59.6249 8.77615C60.1137 7.84585 60.7896 7.12365 61.6535 6.60531L61.4677 6.29578C60.5448 6.84953 59.8237 7.62177 59.3054 8.60825L59.6249 8.77615ZM58.8903 11.9329C58.8903 10.74 59.1366 9.68977 59.6243 8.77728L59.306 8.60712C58.7866 9.57892 58.5293 10.6891 58.5293 11.9329H58.8903ZM59.6017 15.1161C59.1289 14.1862 58.8903 13.1265 58.8903 11.9329H58.5293C58.5293 13.1758 58.7781 14.2928 59.2799 15.2797L59.6017 15.1161ZM61.6311 17.3104C60.7661 16.7756 60.0896 16.0447 59.6006 15.1139L59.281 15.2818C59.7991 16.2679 60.5196 17.0476 61.4413 17.6174L61.6311 17.3104ZM64.9231 16.6941C65.764 16.6941 66.5119 16.5004 67.1607 16.1076L66.9738 15.7988C66.3882 16.1533 65.7066 16.3332 64.9231 16.3332V16.6941ZM62.6872 16.1087C63.3508 16.5 64.0976 16.6941 64.9231 16.6941V16.3332C64.1567 16.3332 63.474 16.1537 62.8706 15.7978L62.6872 16.1087ZM61.1571 14.4288C61.5283 15.1376 62.0369 15.6981 62.6825 16.1058L62.8753 15.8006C62.2864 15.4287 61.8203 14.917 61.4768 14.2613L61.1571 14.4288ZM60.6248 11.9572C60.6248 12.8896 60.7997 13.7141 61.1555 14.4258L61.4784 14.2644C61.152 13.6116 60.9858 12.8442 60.9858 11.9572H60.6248ZM61.1555 9.48866C60.7997 10.2003 60.6248 11.0249 60.6248 11.9572H60.9858C60.9858 11.0702 61.152 10.3029 61.4784 9.65009L61.1555 9.48866ZM62.6854 7.83119C62.0381 8.223 61.5286 8.77625 61.1571 9.48563L61.4768 9.65312C61.82 8.998 62.2852 8.4954 62.8724 8.14L62.6854 7.83119ZM64.9231 7.22032C64.0962 7.22032 63.3483 7.42329 62.6843 7.83188L62.8735 8.13931C63.4766 7.76819 64.1581 7.5813 64.9231 7.5813V7.22032ZM67.1637 7.83299C66.5144 7.42291 65.7654 7.22032 64.9231 7.22032V7.5813C65.7051 7.5813 66.3857 7.76856 66.9709 8.13819L67.1637 7.83299ZM68.6907 9.48866C68.3346 8.77651 67.8236 8.22209 67.159 7.83013L66.9756 8.14106C67.578 8.49632 68.0416 8.99774 68.3678 9.65009L68.6907 9.48866ZM69.2458 11.9572C69.2458 11.0237 69.0623 10.198 68.6891 9.48563L68.3694 9.65312C68.7109 10.3052 68.8848 11.0715 68.8848 11.9572H69.2458ZM68.6891 14.4288C69.0623 13.7164 69.2458 12.8908 69.2458 11.9572H68.8848C68.8848 12.843 68.7109 13.6092 68.3694 14.2613L68.6891 14.4288ZM67.1619 16.1069C67.8248 15.699 68.3349 15.1373 68.6907 14.4258L68.3678 14.2644C68.0413 14.9173 67.5768 15.4278 66.9727 15.7995L67.1619 16.1069ZM41.6054 17.8195C40.5292 17.8195 39.7063 17.5586 39.1148 17.0581L38.8816 17.3337C39.5572 17.9053 40.4723 18.1804 41.6054 18.1804V17.8195ZM43.4572 17.8195H41.6054V18.1804H43.4572V17.8195ZM43.2767 16.2456V18H43.6376V16.2456H43.2767ZM42.1901 16.4261H43.4572V16.0651H42.1901V16.4261ZM40.4414 15.9938C40.8015 16.2971 41.4021 16.4261 42.1901 16.4261V16.0651C41.4188 16.0651 40.931 15.9342 40.6739 15.7177L40.4414 15.9938ZM39.9142 14.2963C39.9142 15.0714 40.0684 15.6602 40.4373 15.9903L40.678 15.7213C40.4296 15.499 40.2752 15.0482 40.2752 14.2963H39.9142ZM39.9142 7.64447V14.2963H40.2752V7.64447H39.9142ZM43.6521 7.46398H40.0947V7.82496H43.6521V7.46398ZM43.4716 5.91449V7.64447H43.8326V5.91449H43.4716ZM40.0947 6.09498H43.6521V5.73401H40.0947V6.09498ZM39.9142 3.01496V5.91449H40.2752V3.01496H39.9142ZM38.316 3.19545H40.0947V2.83447H38.316V3.19545ZM38.2277 5.93111L38.4957 3.03157L38.1362 2.99835L37.8682 5.89788L38.2277 5.93111ZM35.9525 6.09498H38.0479V5.73401H35.9525V6.09498ZM36.133 7.64447V5.91449H35.772V7.64447H36.133ZM38.0479 7.46398H35.9525V7.82496H38.0479V7.46398ZM38.2284 14.2963V7.64447H37.8675V14.2963H38.2284ZM39.1148 17.0581C38.5425 16.5739 38.2284 15.6753 38.2284 14.2963H37.8675C37.8675 15.7113 38.1868 16.7458 38.8816 17.3337L39.1148 17.0581ZM30.3108 18.1119C28.8965 18.1119 27.7352 17.7549 26.8141 17.0524L26.5952 17.3394C27.591 18.0989 28.8337 18.4728 30.3108 18.4728V18.1119ZM33.5813 17.1066C32.7946 17.7699 31.7115 18.1119 30.3108 18.1119V18.4728C31.7691 18.4728 32.9439 18.1163 33.814 17.3826L33.5813 17.1066ZM34.7599 14.5427C34.7753 15.576 34.3853 16.4263 33.5811 17.1068L33.8143 17.3824C34.6994 16.6334 35.1379 15.6807 35.1208 14.5373L34.7599 14.5427ZM34.1525 12.6673C34.5478 13.0772 34.7599 13.6912 34.7599 14.54H35.1208C35.1208 13.6345 34.8942 12.9164 34.4124 12.4167L34.1525 12.6673ZM32.5685 11.6655C33.2251 11.8844 33.7494 12.2178 34.1481 12.6625L34.4168 12.4215C33.9709 11.9241 33.3905 11.559 32.6827 11.323L32.5685 11.6655ZM30.4674 11.0615C31.2072 11.2223 31.9059 11.4232 32.5636 11.6638L32.6876 11.3248C32.0133 11.0781 31.2987 10.8728 30.5441 10.7088L30.4674 11.0615ZM28.3256 10.3379C28.8652 10.6246 29.581 10.8645 30.4666 11.0613L30.5449 10.7089C29.6762 10.5159 28.995 10.2848 28.495 10.0191L28.3256 10.3379ZM27.4745 9.03332C27.4745 9.59954 27.7745 10.0357 28.3235 10.3368L28.4971 10.0203C28.0389 9.76902 27.8354 9.44174 27.8354 9.03332H27.4745ZM28.1277 7.67352C27.694 8.01689 27.4745 8.47543 27.4745 9.03332H27.8354C27.8354 8.58409 28.0058 8.23044 28.3518 7.95654L28.1277 7.67352ZM29.9453 7.17159C29.1915 7.17159 28.579 7.33045 28.1305 7.67133L28.3489 7.95873C28.7126 7.68234 29.2373 7.53257 29.9453 7.53257V7.17159ZM31.8381 7.74821C31.3582 7.35723 30.7207 7.17159 29.9453 7.17159V7.53257C30.6644 7.53257 31.2127 7.7043 31.61 8.02805L31.8381 7.74821ZM32.7071 9.30217C32.6202 8.64181 32.3299 8.11692 31.8323 7.74374L31.6158 8.03252C32.0278 8.34158 32.2736 8.77508 32.3492 9.34926L32.7071 9.30217ZM34.5505 9.14523H32.5281V9.5062H34.5505V9.14523ZM33.0033 6.74011C33.7867 7.33924 34.2457 8.20089 34.3711 9.34538L34.7299 9.30605C34.5954 8.07893 34.0959 7.12126 33.2225 6.45337L33.0033 6.74011ZM29.9697 5.80259C31.2218 5.80259 32.2269 6.11906 33.0002 6.73768L33.2257 6.4558C32.3745 5.7749 31.2841 5.44162 29.9697 5.44162V5.80259ZM26.8709 6.78251C27.6257 6.13554 28.6519 5.80259 29.9697 5.80259V5.44162C28.591 5.44162 27.4731 5.79091 26.636 6.50843L26.8709 6.78251ZM25.7643 9.22825C25.7643 8.2234 26.1324 7.41327 26.8706 6.78271L26.6362 6.50823C25.815 7.20967 25.4034 8.1214 25.4034 9.22825H25.7643ZM26.3717 10.8817C25.9706 10.4658 25.7643 9.92039 25.7643 9.22825H25.4034C25.4034 9.99807 25.6357 10.6385 26.1118 11.1322L26.3717 10.8817ZM27.9376 11.8613C27.3091 11.6256 26.7877 11.2976 26.3694 10.8793L26.1141 11.1346C26.573 11.5934 27.1399 11.9477 27.8109 12.1993L27.9376 11.8613ZM29.8589 12.4138C29.2191 12.2858 28.5787 12.1017 27.9376 11.8613L27.8109 12.1993C28.4693 12.4462 29.1284 12.6358 29.7881 12.7677L29.8589 12.4138ZM32.1174 13.0852C31.5787 12.8327 30.8236 12.61 29.8595 12.4139L29.7875 12.7676C30.7402 12.9614 31.4633 13.1772 31.9642 13.412L32.1174 13.0852ZM33.0254 14.7106C33.0254 14.3239 32.9546 13.9873 32.802 13.7099C32.6481 13.43 32.4167 13.2212 32.1155 13.0843L31.9661 13.4129C32.2009 13.5197 32.3716 13.6763 32.4857 13.8838C32.6012 14.0938 32.6644 14.3662 32.6644 14.7106H33.0254ZM32.3579 16.1592C32.7972 15.755 33.0254 15.2698 33.0254 14.7106H32.6644C32.6644 15.1585 32.4864 15.5504 32.1135 15.8935L32.3579 16.1592ZM30.3352 16.7429C31.2154 16.7429 31.9012 16.5611 32.355 16.1618L32.1165 15.8908C31.758 16.2063 31.1768 16.3819 30.3352 16.3819V16.7429ZM28.0032 16.0195C28.5963 16.5079 29.3799 16.7429 30.3352 16.7429V16.3819C29.4387 16.3819 28.7441 16.162 28.2326 15.7408L28.0032 16.0195ZM26.9421 14.2595C27.0808 14.9355 27.4364 15.5215 27.9988 16.0157L28.237 15.7446C27.7273 15.2966 27.4169 14.778 27.2957 14.187L26.9421 14.2595ZM25.0234 14.4037H27.1189V14.0428H25.0234V14.4037ZM26.8141 17.0524C25.896 16.3521 25.359 15.4055 25.2024 14.2L24.8445 14.2465C25.0128 15.5426 25.5966 16.5777 26.5952 17.3394L26.8141 17.0524ZM46.6352 17.1274C47.5201 18.0292 48.707 18.4728 50.1753 18.4728V18.1119C48.7846 18.1119 47.6974 17.6945 46.8929 16.8746L46.6352 17.1274ZM45.3165 12.9806C45.3165 14.8082 45.7443 16.2022 46.6341 17.1262L46.8941 16.8758C46.0944 16.0454 45.6775 14.7591 45.6775 12.9806H45.3165ZM45.3165 5.91449V12.9806H45.6775V5.91449H45.3165ZM47.5438 5.73401H45.497V6.09498H47.5438V5.73401ZM47.7243 12.7613V5.91449H47.3633V12.7613H47.7243ZM50.6382 16.3575C49.6451 16.3575 48.9296 16.0562 48.457 15.4794C47.9787 14.8958 47.7243 14.0001 47.7243 12.7613H47.3633C47.3633 14.0403 47.6245 15.033 48.1778 15.7082C48.7367 16.3903 49.5684 16.7185 50.6382 16.7185V16.3575ZM53.1121 15.2955C52.4657 16.0034 51.6459 16.3575 50.6382 16.3575V16.7185C51.7423 16.7185 52.6606 16.3254 53.3787 15.5389L53.1121 15.2955ZM54.1126 12.1765C54.1126 13.5444 53.7709 14.5753 53.1122 15.2953L53.3785 15.539C54.1168 14.7321 54.4736 13.6026 54.4736 12.1765H54.1126ZM54.1126 5.91449V12.1765H54.4736V5.91449H54.1126ZM56.3398 5.73401H54.2931V6.09498H56.3398V5.73401ZM56.5203 18V5.91449H56.1594V18H56.5203ZM54.488 18.1804H56.3398V17.8195H54.488V18.1804ZM54.1618 15.8435L54.308 18.0121L54.6681 17.9878L54.5219 15.8193L54.1618 15.8435ZM52.752 17.7901C53.5291 17.334 54.1145 16.7067 54.504 15.9107L54.1797 15.7521C53.822 16.483 53.2865 17.0578 52.5692 17.4788L52.752 17.7901ZM50.1753 18.4728C51.131 18.4728 51.992 18.2461 52.7535 17.7892L52.5677 17.4797C51.8672 17.9 51.0714 18.1119 50.1753 18.1119V18.4728ZM74.1298 2.97583C74.4419 3.26961 74.8284 3.41474 75.2769 3.41474V3.05376C74.9132 3.05376 74.6174 2.93899 74.3772 2.71297L74.1298 2.97583ZM73.6832 1.82103C73.6832 2.26953 73.8283 2.65595 74.1221 2.9681L74.3849 2.7207C74.1589 2.48054 74.0441 2.18473 74.0441 1.82103H73.6832ZM74.1259 0.718772C73.8299 1.01474 73.6832 1.38653 73.6832 1.82103H74.0441C74.0441 1.47582 74.1573 1.19786 74.3811 0.97402L74.1259 0.718772ZM75.2769 0.276055C74.8284 0.276055 74.4419 0.421185 74.1298 0.714965L74.3772 0.977827C74.6174 0.751803 74.9132 0.637031 75.2769 0.637031V0.276055ZM76.3996 0.714965C76.0889 0.422586 75.7113 0.276055 75.2769 0.276055V0.637031C75.6222 0.637031 75.9105 0.750402 76.1522 0.977827L76.3996 0.714965ZM76.8706 1.82103C76.8706 1.38299 76.7131 1.01004 76.3996 0.714965L76.1522 0.977827C76.3909 1.20256 76.5096 1.47937 76.5096 1.82103H76.8706ZM76.4035 2.97202C76.715 2.66055 76.8706 2.27287 76.8706 1.82103H76.5096C76.5096 2.18139 76.3891 2.47595 76.1482 2.71677L76.4035 2.97202ZM75.2769 3.41474C75.7113 3.41474 76.0889 3.26821 76.3996 2.97583L76.1522 2.71297C75.9105 2.94039 75.6222 3.05376 75.2769 3.05376V3.41474ZM74.073 5.91449V18H74.434V5.91449H74.073ZM76.3002 5.73401H74.2535V6.09498H76.3002V5.73401ZM76.4807 18V5.91449H76.1197V18H76.4807ZM74.2535 18.1804H76.3002V17.8195H74.2535V18.1804ZM84.8833 18.1119C83.7749 18.1119 82.7828 17.8588 81.9027 17.3559L81.7237 17.6693C82.6629 18.2061 83.7176 18.4728 84.8833 18.4728V18.1119ZM87.8638 17.3559C86.9838 17.8588 85.9917 18.1119 84.8833 18.1119V18.4728C86.049 18.4728 87.1037 18.2061 88.0429 17.6693L87.8638 17.3559ZM89.9895 15.2305C89.4693 16.1447 88.7617 16.8519 87.865 17.3553L88.0418 17.67C88.9969 17.1338 89.7513 16.379 90.3032 15.409L89.9895 15.2305ZM90.7699 11.9572C90.7699 13.2149 90.5074 14.3044 89.9888 15.2316L90.3038 15.4078C90.8573 14.4183 91.1309 13.2661 91.1309 11.9572H90.7699ZM89.9895 8.70836C90.5074 9.61869 90.7699 10.6995 90.7699 11.9572H91.1309C91.1309 10.6484 90.8573 9.50381 90.3032 8.52985L89.9895 8.70836ZM89.3827 7.79974C89.6075 8.07436 89.8092 8.37606 89.9877 8.70516L90.305 8.53305C90.1162 8.18496 89.9019 7.8642 89.6621 7.57112L89.3827 7.79974ZM89.388 7.56499L88.0335 9.07662L88.3023 9.31752L89.6568 7.80588L89.388 7.56499ZM88.4544 9.33943C88.4122 9.25891 88.3683 9.18056 88.3228 9.10439L88.013 9.28975C88.055 9.35991 88.0955 9.43229 88.1346 9.50692L88.4544 9.33943ZM89.0354 11.9572C89.0354 10.9285 88.8447 10.052 88.4528 9.33649L88.1362 9.50987C88.4916 10.1588 88.6744 10.9717 88.6744 11.9572H89.0354ZM88.4528 14.578C88.8447 13.8624 89.0354 12.986 89.0354 11.9572H88.6744C88.6744 12.9427 88.4916 13.7556 88.1362 14.4046L88.4528 14.578ZM86.9217 16.1833C87.5554 15.8236 88.0652 15.2858 88.4528 14.578L88.1362 14.4046C87.7766 15.0612 87.3118 15.5468 86.7435 15.8694L86.9217 16.1833ZM84.8833 16.7185C85.6127 16.7185 86.2932 16.54 86.9217 16.1833L86.7435 15.8694C86.1699 16.1949 85.5509 16.3575 84.8833 16.3575V16.7185ZM82.8693 16.1833C83.4971 16.5396 84.1694 16.7185 84.8833 16.7185V16.3575C84.2327 16.3575 83.6217 16.1953 83.0475 15.8694L82.8693 16.1833ZM81.3625 14.578C81.7495 15.2846 82.2503 15.8222 82.8675 16.1822L83.0493 15.8704C82.4969 15.5482 82.0394 15.0624 81.6791 14.4046L81.3625 14.578ZM80.7799 11.9572C80.7799 12.986 80.9707 13.8624 81.3625 14.578L81.6791 14.4046C81.3237 13.7556 81.1409 12.9427 81.1409 11.9572H80.7799ZM81.3625 9.33649C80.9707 10.052 80.7799 10.9285 80.7799 11.9572H81.1409C81.1409 10.9717 81.3237 10.1588 81.6791 9.50987L81.3625 9.33649ZM82.8937 7.73116C82.26 8.09084 81.7501 8.62864 81.3625 9.33649L81.6791 9.50987C82.0387 8.85323 82.5035 8.36766 83.0718 8.0451L82.8937 7.73116ZM84.932 7.19596C84.2027 7.19596 83.5222 7.37445 82.8937 7.73116L83.0718 8.0451C83.6454 7.71956 84.2644 7.55693 84.932 7.55693V7.19596ZM86.5134 7.51671C86.0115 7.30284 85.4839 7.19596 84.932 7.19596V7.55693C85.4359 7.55693 85.9154 7.65425 86.3719 7.8488L86.5134 7.51671ZM86.5771 7.8032L87.8584 6.37321L87.5896 6.13232L86.3083 7.56231L86.5771 7.8032ZM84.932 5.80259C85.9292 5.80259 86.8318 6.00736 87.6431 6.41411L87.8049 6.09142C86.9389 5.65729 85.9802 5.44162 84.932 5.44162V5.80259ZM81.9259 6.55919C82.8229 6.05561 83.8236 5.80259 84.932 5.80259V5.44162C83.7663 5.44162 82.704 5.7084 81.7492 6.24443L81.9259 6.55919ZM79.8265 8.70721C80.3474 7.776 81.0473 7.06126 81.9271 6.55852L81.748 6.2451C80.8085 6.78198 80.0627 7.54543 79.5115 8.531L79.8265 8.70721ZM79.0454 11.9572C79.0454 10.6995 79.3079 9.61869 79.8259 8.70836L79.5121 8.52985C78.958 9.50381 78.6844 10.6484 78.6844 11.9572H79.0454ZM79.8033 15.2337C79.3002 14.306 79.0454 13.2158 79.0454 11.9572H78.6844C78.6844 13.2652 78.9495 14.4166 79.486 15.4058L79.8033 15.2337ZM81.9027 17.3559C81.0222 16.8527 80.3221 16.1455 79.8015 15.2305L79.4878 15.409C80.0392 16.3782 80.7849 17.1329 81.7237 17.6693L81.9027 17.3559Z" fill="black" mask="url(#path-3-outside-2_654_470)"/>
</svg>
